G04 ================== begin FILE IDENTIFICATION RECORD ==================*
G04 Layout Name:  Honeywell_V5C.brd*
G04 Film Name:    GERBER_V5C_MASK_BOTTOM*
G04 File Format:  Gerber RS274X*
G04 File Origin:  Cadence Allegro 16.6-2015-S055*
G04 Origin Date:  Fri Feb 05 08:48:23 2016*
G04 *
G04 Layer:  VIA CLASS/SOLDERMASK_BOTTOM*
G04 Layer:  PIN/SOLDERMASK_BOTTOM*
G04 *
G04 Offset:    (0.00 0.00)*
G04 Mirror:    No*
G04 Mode:      Positive*
G04 Rotation:  0*
G04 FullContactRelief:  No*
G04 UndefLineWidth:     10.00*
G04 ================== end FILE IDENTIFICATION RECORD ====================*
%FSLAX25Y25*MOIN*%
%IR0*IPPOS*OFA0.00000B0.00000*MIA0B0*SFA1.00000B1.00000*%
%ADD14C,.06*%
%ADD10C,.044*%
%ADD13C,.072*%
%ADD11C,.075*%
%ADD15R,.06X.06*%
%ADD16R,.072X.072*%
%ADD12C,.258*%
%LPD*%
G75*
G54D10*
X27000Y9500D03*
X10000Y59000D03*
X19000D03*
X26000Y150000D03*
X22500Y166500D03*
X10000D03*
Y173000D03*
X31000Y190000D03*
X11000Y306000D03*
Y297500D03*
X16000Y343500D03*
X47000Y7500D03*
X36500Y161500D03*
X58500Y189500D03*
Y204500D03*
X34500Y234000D03*
X66000Y9000D03*
X92000Y16000D03*
X77000Y158500D03*
Y172500D03*
X91500Y225500D03*
X85000Y219000D03*
X110000Y10500D03*
X106500Y124000D03*
X114000D03*
X112000Y152000D03*
X111500Y188000D03*
X106000Y187000D03*
X107500Y212500D03*
X118500Y265000D03*
X107500D03*
X114218Y301782D03*
X95500D03*
X123500Y177000D03*
Y160000D03*
X150500Y161500D03*
X143500Y154500D03*
X146500Y168000D03*
X139000Y157500D03*
X135000Y160000D03*
X129015D03*
X142500Y199000D03*
Y189000D03*
X126000Y188000D03*
X135000Y183500D03*
X129500Y180000D03*
X136000Y189000D03*
Y199000D03*
X126000Y235500D03*
X133500Y241500D03*
X160000Y99500D03*
Y110000D03*
X154000D03*
Y95000D03*
X167000Y241500D03*
X175500Y355000D03*
X185000Y241500D03*
G54D11*
X28000Y46000D03*
Y36000D03*
X65000Y46000D03*
Y36000D03*
X111000Y21000D03*
X121000D03*
X111000Y31000D03*
X121000D03*
X116000Y204000D03*
X106000D03*
X116000Y228000D03*
X106000D03*
X131000Y21000D03*
X141000D03*
X151000D03*
X131000Y31000D03*
X141000D03*
X151000D03*
X126000Y204000D03*
X150000Y209000D03*
X126000Y228000D03*
X150000Y219000D03*
Y229000D03*
X174000Y112000D03*
Y102000D03*
X190000D03*
Y112000D03*
G54D12*
X37134Y109654D03*
X178866Y138000D03*
G54D13*
X14000Y250000D03*
X24000D03*
X34000D03*
X50000Y60000D03*
X60000D03*
X44000Y250000D03*
X54000D03*
X64000D03*
X70000Y60000D03*
X80000D03*
X90000D03*
X74000Y250000D03*
X84000D03*
X94000D03*
X100000Y60000D03*
X110000D03*
X120000Y250000D03*
X150000Y70000D03*
Y60000D03*
X140000Y70000D03*
X130000Y250000D03*
X140000D03*
X150000D03*
X180000Y70000D03*
Y60000D03*
X170000Y70000D03*
Y60000D03*
X160000Y70000D03*
Y60000D03*
Y250000D03*
X170000D03*
X180000D03*
X190000Y70000D03*
Y60000D03*
G54D14*
X42000Y282134D03*
Y290008D03*
Y297882D03*
Y305756D03*
Y313630D03*
Y321504D03*
Y329378D03*
Y337252D03*
Y345126D03*
X96189Y138000D03*
X104063D03*
X111937D03*
X119811D03*
X128614Y297882D03*
Y290008D03*
Y282134D03*
Y321504D03*
Y313630D03*
Y305756D03*
Y353000D03*
Y345126D03*
Y337252D03*
Y329378D03*
G54D15*
X42000Y353000D03*
G54D16*
X120000Y60000D03*
X104000Y250000D03*
X140000Y60000D03*
X190000Y250000D03*
M02*
