G04 ================== begin FILE IDENTIFICATION RECORD ==================*
G04 Layout Name:  Honeywell_V5C.brd*
G04 Film Name:    GERBER_V5C_TOP*
G04 File Format:  Gerber RS274X*
G04 File Origin:  Cadence Allegro 16.6-2015-S055*
G04 Origin Date:  Fri Feb 05 08:48:23 2016*
G04 *
G04 Layer:  ETCH/TOP*
G04 Layer:  PIN/TOP*
G04 Layer:  VIA CLASS/TOP*
G04 *
G04 Offset:    (0.00 0.00)*
G04 Mirror:    No*
G04 Mode:      Positive*
G04 Rotation:  0*
G04 FullContactRelief:  No*
G04 UndefLineWidth:     0.00*
G04 ================== end FILE IDENTIFICATION RECORD ====================*
%FSLAX25Y25*MOIN*%
%IR0*IPPOS*OFA0.00000B0.00000*MIA0B0*SFA1.00000B1.00000*%
%ADD18C,.05*%
%ADD12C,.06*%
%ADD11C,.024*%
%ADD20C,.052*%
%ADD16C,.064*%
%ADD10R,.05X.05*%
%ADD19R,.064X.064*%
%ADD22R,.034X.04*%
%ADD14R,.025X.05*%
%ADD23R,.034X.05*%
%ADD15R,.08X.045*%
%ADD13C,.234*%
%ADD21R,.076X.048*%
%ADD17R,.02441X.04803*%
%ADD24C,.01*%
%ADD25C,.008*%
G75*
%LPD*%
G75*
G36*
G01X11969Y10000D02*
G03I-1969J0D01*
G37*
G36*
G01Y320000D02*
G03I-1969J0D01*
G37*
G36*
G01X191969Y10000D02*
G03I-1969J0D01*
G37*
G54D10*
X27000Y24000D03*
Y15600D03*
X14000Y75500D03*
X22400D03*
X14000Y88000D03*
X22400D03*
X10000Y150000D03*
X18400D03*
X15000Y190000D03*
X23400D03*
X30000Y339000D03*
X21600D03*
X30000Y348000D03*
X21600D03*
X42000Y353000D03*
X66000Y24000D03*
Y15600D03*
X107000Y75000D03*
X115400D03*
X176000Y170000D03*
Y161600D03*
X190000Y170000D03*
Y161600D03*
G54D20*
X96189Y138000D03*
X104063D03*
X111937D03*
X119811D03*
G54D11*
X27000Y9500D03*
X10000Y59000D03*
X19000D03*
X26000Y150000D03*
X22500Y166500D03*
X10000D03*
Y173000D03*
X31000Y190000D03*
X11000Y306000D03*
Y297500D03*
X16000Y343500D03*
X47000Y7500D03*
X36500Y161500D03*
X58500Y189500D03*
Y204500D03*
X34500Y234000D03*
X66000Y9000D03*
X92000Y16000D03*
X77000Y158500D03*
Y172500D03*
X91500Y225500D03*
X85000Y219000D03*
X110000Y10500D03*
X106500Y124000D03*
X114000D03*
X112000Y152000D03*
X111500Y188000D03*
X106000Y187000D03*
X107500Y212500D03*
X118500Y265000D03*
X107500D03*
X114218Y301782D03*
X95500D03*
X123500Y177000D03*
Y160000D03*
X150500Y161500D03*
X143500Y154500D03*
X146500Y168000D03*
X139000Y157500D03*
X135000Y160000D03*
X129015D03*
X142500Y199000D03*
Y189000D03*
X126000Y188000D03*
X135000Y183500D03*
X129500Y180000D03*
X136000Y189000D03*
Y199000D03*
X126000Y235500D03*
X133500Y241500D03*
X160000Y99500D03*
Y110000D03*
X154000D03*
Y95000D03*
X167000Y241500D03*
X175500Y355000D03*
X185000Y241500D03*
G54D21*
X176000Y190000D03*
Y197900D03*
X190000Y190000D03*
Y197900D03*
G54D12*
X28000Y46000D03*
Y36000D03*
X65000Y46000D03*
Y36000D03*
X111000Y21000D03*
X121000D03*
X111000Y31000D03*
X121000D03*
X116000Y204000D03*
X106000D03*
X116000Y228000D03*
X106000D03*
X131000Y21000D03*
X141000D03*
X151000D03*
X131000Y31000D03*
X141000D03*
X151000D03*
X126000Y204000D03*
X150000Y209000D03*
X126000Y228000D03*
X150000Y219000D03*
Y229000D03*
X174000Y112000D03*
Y102000D03*
X190000D03*
Y112000D03*
G54D13*
X37134Y109654D03*
X178866Y138000D03*
G54D22*
X181600Y347000D03*
X189000D03*
G54D23*
X185300Y354900D03*
G54D14*
X12500Y160250D03*
X17500D03*
X22500D03*
X27500D03*
X17500Y179750D03*
X12500D03*
X22500D03*
X27500D03*
G54D24*
G01X27000Y24000D02*
Y27200D01*
X27800Y28000D01*
G01X28000Y28200D02*
Y36000D01*
G01X43260Y24157D02*
Y27200D01*
X42460Y28000D01*
X27800D01*
G01X14556Y64000D02*
Y42944D01*
X21500Y36000D01*
X28000D01*
G01X80000Y60000D02*
X72500Y52500D01*
X34500D01*
X28000Y46000D01*
G01X95000Y75000D02*
X61000D01*
X55500Y69500D01*
X30500D01*
X25000Y64000D01*
X14556D01*
G01X9000Y75500D02*
Y83000D01*
X14000Y88000D01*
G01X14556Y64000D02*
X9000Y69556D01*
Y75500D01*
G01X15000Y190000D02*
X14670D01*
X11292Y193378D01*
Y194792D01*
X12000Y195500D01*
X32000D01*
X38000Y189500D01*
X58500D01*
G01X25500Y224000D02*
X15000D01*
X6500Y232500D01*
Y277500D01*
X11000Y282000D01*
Y297500D01*
G01X58500Y204500D02*
X39000Y224000D01*
X25500D01*
G01X11000Y306000D02*
Y308200D01*
X33500Y330700D01*
Y335500D01*
X30000Y339000D01*
G01X50740Y17500D02*
X57240Y24000D01*
X66000D01*
G01X77000Y172500D02*
X69500D01*
X58500Y183500D01*
Y189500D01*
G01X176000Y206000D02*
X171000D01*
X157500Y192500D01*
X78500D01*
X75500Y189500D01*
X58500D01*
G01X65000Y36000D02*
Y29000D01*
X66000Y28000D01*
Y24000D01*
G01X90000Y60000D02*
X76000Y46000D01*
X65000D01*
G01X77000Y158500D02*
X105500D01*
X112000Y152000D01*
G01X158000Y9000D02*
X111500D01*
X110000Y10500D01*
G01X95000Y75000D02*
Y54000D01*
X92000Y51000D01*
Y16000D01*
G01X111937Y138000D02*
Y130937D01*
X110000Y129000D01*
Y88500D01*
X102000Y80500D01*
Y75800D01*
G01X95000Y75000D02*
X102800D01*
G01D02*
X107000D01*
G01X176000Y206000D02*
Y197900D01*
G01X190000D02*
Y204500D01*
X188500Y206000D01*
X176000D01*
G54D15*
X25500Y204000D03*
Y214000D03*
Y224000D03*
Y234000D03*
X70500Y204000D03*
Y234000D03*
Y224000D03*
Y214000D03*
G54D25*
G01X27000Y15600D02*
Y9500D01*
G01X27800Y28000D02*
X28000Y28200D01*
G01X14000Y75500D02*
X9000D01*
G01X106500Y124000D02*
X102500D01*
X54000Y75500D01*
X22400D01*
G01X60000Y60000D02*
X54000Y66000D01*
X43000D01*
X36000Y59000D01*
X19000D01*
G01X95500Y301782D02*
X7282D01*
X3000Y297500D01*
Y66000D01*
X10000Y59000D01*
G01X96189Y138000D02*
Y134500D01*
X96000Y134311D01*
Y129000D01*
X55000Y88000D01*
X22400D01*
G01X18400Y150000D02*
X26000D01*
G01D02*
X21000Y155000D01*
X18500D01*
X17500Y156000D01*
Y160250D01*
G01X27500D02*
Y167500D01*
X25000Y170000D01*
X7000D01*
X5000Y172000D01*
Y209000D01*
X10000Y214000D01*
X25500D01*
G01X27500Y160250D02*
Y155500D01*
X39500Y143500D01*
X95389D01*
X96189Y142700D01*
Y138000D01*
G01X22500Y166500D02*
Y160250D01*
G01X10000Y173000D02*
X7000Y176000D01*
Y199000D01*
X12000Y204000D01*
X25500D01*
G01X10000Y166500D02*
X22500D01*
G01X154000Y110000D02*
X149500Y114500D01*
Y154000D01*
X138000Y165500D01*
X61500D01*
X51500Y175500D01*
X28500D01*
X27500Y176500D01*
Y179750D01*
G01X10000Y150000D02*
X6800D01*
X6000Y150800D01*
Y153500D01*
X7500Y155000D01*
X10650D01*
X12500Y156850D01*
Y160250D01*
G01X23400Y190000D02*
X31000D01*
G01X12500Y179750D02*
Y187500D01*
X15000Y190000D01*
G01X116000Y228000D02*
Y215000D01*
X121000Y210000D01*
Y198000D01*
X118000Y195000D01*
X49500D01*
X40500Y204000D01*
X25500D01*
G01X160000Y110000D02*
Y115500D01*
X152000Y123500D01*
Y155500D01*
X140000Y167500D01*
X65000D01*
X48500Y184000D01*
X23000D01*
X22500Y183500D01*
Y179750D01*
G01X25500Y234000D02*
X34500D01*
G01X116000Y204000D02*
Y198500D01*
X114500Y197000D01*
X54500D01*
X37500Y214000D01*
X25500D01*
G01X14000Y250000D02*
X23000Y241000D01*
X41500D01*
X63500Y219000D01*
X85000D01*
G01X24000Y250000D02*
X31000Y243000D01*
X49500D01*
X63500Y229000D01*
X81000D01*
X106000Y204000D01*
G01X21600Y339000D02*
X18200D01*
X16000Y341200D01*
Y343500D01*
G01X21600Y348000D02*
X18200D01*
X16000Y345800D01*
Y343500D01*
G01X42000Y353000D02*
X35000D01*
X30000Y348000D01*
G01Y339000D02*
X32500Y341500D01*
Y345500D01*
X30000Y348000D01*
G01X47000Y13843D02*
Y7500D01*
G01X50740Y13843D02*
Y17500D01*
G01D02*
X50595Y17645D01*
X44060D01*
X43260Y16845D01*
Y13843D01*
G01X119811Y138000D02*
Y144689D01*
X117500Y147000D01*
X51000D01*
X36500Y161500D01*
G01X54000Y250000D02*
X64500Y239500D01*
X129000D01*
X140000Y228500D01*
Y223500D01*
X144500Y219000D01*
X150000D01*
G01X84000Y250000D02*
Y269000D01*
X63000Y290000D01*
X45408D01*
X45400Y290008D01*
X42000D01*
G01X94000Y250000D02*
Y255500D01*
X99000Y260500D01*
Y319500D01*
X97000Y321500D01*
X45404D01*
X45400Y321504D01*
X42000D01*
G01X181600Y347000D02*
Y343100D01*
X180500Y342000D01*
X167500D01*
X152000Y357500D01*
X120000D01*
X115500Y353000D01*
X42000D01*
G01X104000Y250000D02*
Y332000D01*
X98500Y337500D01*
X45648D01*
X45400Y337252D01*
X42000D01*
G01Y345126D02*
X97874D01*
X107500Y335500D01*
Y265000D01*
G01X66000Y15600D02*
Y9000D01*
G01X64000Y250000D02*
X72000Y242000D01*
X110500D01*
X113000Y244500D01*
Y271500D01*
X116000Y274500D01*
X131500D01*
X137500Y280500D01*
Y351000D01*
X135500Y353000D01*
X128614D01*
G01X74000Y250000D02*
X80000Y244000D01*
X108500D01*
X110500Y246000D01*
Y313500D01*
X118500Y321500D01*
X125210D01*
X125214Y321504D01*
X128614D01*
G01X151000Y31000D02*
X158500D01*
X160000Y29500D01*
Y11000D01*
X158000Y9000D01*
G01X160000Y70000D02*
X155000Y65000D01*
Y55800D01*
X162500Y48300D01*
Y8500D01*
X160000Y6000D01*
X107500D01*
X105000Y8500D01*
Y20200D01*
X105800Y21000D01*
X111000D01*
G01X170000Y70000D02*
X165000Y65000D01*
Y6500D01*
X162500Y4000D01*
X105500D01*
X101000Y8500D01*
Y28000D01*
X104000Y31000D01*
X111000D01*
G01X110000Y60000D02*
X120000Y70000D01*
Y74200D01*
X119200Y75000D01*
X115400D01*
G01X102000Y75800D02*
X102800Y75000D01*
G01X119811Y138000D02*
Y131189D01*
X120000Y131000D01*
Y130000D01*
X114000Y124000D01*
G01X111500Y188000D02*
X113600D01*
X115500Y186100D01*
Y175500D01*
X117500Y173500D01*
X148000D01*
X150500Y171000D01*
Y161500D01*
G01X106000Y187000D02*
X108000Y185000D01*
Y171000D01*
X108500Y170500D01*
X144000D01*
X146500Y168000D01*
G01X107500Y212500D02*
X106000Y214000D01*
Y228000D01*
G01D02*
X94000D01*
X91500Y225500D01*
G01X170000Y250000D02*
Y258500D01*
X163500Y265000D01*
X118500D01*
G01X128614Y305756D02*
X118192D01*
X114218Y301782D01*
G01X123500Y160000D02*
X126000Y157500D01*
Y26000D01*
X121000Y21000D01*
G01X143500Y154500D02*
X142000Y153000D01*
Y84000D01*
X134000Y76000D01*
Y68000D01*
X137000Y65000D01*
X144000D01*
X145000Y64000D01*
Y55500D01*
X146000Y54500D01*
Y26000D01*
X151000Y21000D01*
G01X135000Y160000D02*
Y159900D01*
X133000Y157900D01*
Y88000D01*
X130000Y85000D01*
Y57500D01*
X136000Y51500D01*
Y26000D01*
X131000Y21000D01*
G01X139000Y157500D02*
Y88500D01*
X132000Y81500D01*
Y59000D01*
X141000Y50000D01*
Y31000D01*
G01X129015Y160000D02*
Y88516D01*
X128000Y87501D01*
Y56500D01*
X131000Y53500D01*
Y31000D01*
G01X174000Y102000D02*
X170000Y106000D01*
X152000D01*
X147500Y101500D01*
Y77500D01*
X140000Y70000D01*
G01X190000Y102000D02*
Y95000D01*
X188500Y93500D01*
X170000D01*
X166000Y97500D01*
Y101000D01*
X163500Y103500D01*
X155500D01*
X150000Y98000D01*
Y70000D01*
G01X142500Y189000D02*
Y179500D01*
X140000Y177000D01*
X123500D01*
G01X150000Y209000D02*
X142500Y201500D01*
Y199000D01*
G01X180000Y250000D02*
Y245000D01*
X168500Y233500D01*
X161500D01*
X157000Y229000D01*
Y201500D01*
X150500Y195000D01*
X135000D01*
X126000Y204000D01*
G01X135000Y183500D02*
X130500Y188000D01*
X126000D01*
G01X129500Y180000D02*
X138000D01*
X139500Y181500D01*
Y185500D01*
X136000Y189000D01*
G01X126000Y228000D02*
Y219000D01*
X136000Y209000D01*
Y199000D01*
G01X189000Y347000D02*
Y340000D01*
X175000Y326000D01*
Y244000D01*
X167000Y236000D01*
X150500D01*
X150000Y235500D01*
Y229000D01*
G01X126000Y235500D02*
Y228000D01*
G01X167000Y241500D02*
X133500D01*
G01X160000Y99500D02*
Y97000D01*
X180000Y77000D01*
Y70000D01*
G01X154000Y95000D02*
Y92900D01*
X169900Y77000D01*
X174200D01*
X175000Y76200D01*
Y67000D01*
X177000Y65000D01*
X185000D01*
X190000Y70000D01*
G01X176000Y161600D02*
Y156000D01*
X175000Y155000D01*
X162000D01*
X158500Y151500D01*
Y127500D01*
X174000Y112000D01*
G01X176000Y170000D02*
Y190000D01*
G01X175500Y355000D02*
X178000Y357500D01*
X183600D01*
X185300Y355800D01*
Y354900D01*
G01X190000Y161600D02*
Y156500D01*
X196250Y150250D01*
Y124250D01*
X190000Y118000D01*
Y112000D01*
G01Y170000D02*
Y190000D01*
G01Y250000D02*
Y244000D01*
X187500Y241500D01*
X185000D01*
G54D16*
X14000Y250000D03*
X24000D03*
X34000D03*
X50000Y60000D03*
X60000D03*
X44000Y250000D03*
X54000D03*
X64000D03*
X70000Y60000D03*
X80000D03*
X90000D03*
X74000Y250000D03*
X84000D03*
X94000D03*
X100000Y60000D03*
X110000D03*
X120000Y250000D03*
X150000Y70000D03*
Y60000D03*
X140000Y70000D03*
X130000Y250000D03*
X140000D03*
X150000D03*
X180000Y70000D03*
Y60000D03*
X170000Y70000D03*
Y60000D03*
X160000Y70000D03*
Y60000D03*
Y250000D03*
X170000D03*
X180000D03*
X190000Y70000D03*
Y60000D03*
G54D17*
X43260Y24157D03*
X50740D03*
Y13843D03*
X47000D03*
X43260D03*
G54D18*
X42000Y282134D03*
Y290008D03*
Y297882D03*
Y305756D03*
Y313630D03*
Y321504D03*
Y329378D03*
Y337252D03*
Y345126D03*
X128614Y297882D03*
Y290008D03*
Y282134D03*
Y321504D03*
Y313630D03*
Y305756D03*
Y353000D03*
Y345126D03*
Y337252D03*
Y329378D03*
G54D19*
X120000Y60000D03*
X104000Y250000D03*
X140000Y60000D03*
X190000Y250000D03*
M02*
