G04 ================== begin FILE IDENTIFICATION RECORD ==================*
G04 Layout Name:  Honeywell_V5C.brd*
G04 Film Name:    GERBER_V5C_BOTTOM*
G04 File Format:  Gerber RS274X*
G04 File Origin:  Cadence Allegro 16.6-2015-S055*
G04 Origin Date:  Fri Feb 05 08:48:23 2016*
G04 *
G04 Layer:  ETCH/BOTTOM*
G04 Layer:  PIN/BOTTOM*
G04 Layer:  VIA CLASS/BOTTOM*
G04 *
G04 Offset:    (0.00 0.00)*
G04 Mirror:    No*
G04 Mode:      Positive*
G04 Rotation:  0*
G04 FullContactRelief:  No*
G04 UndefLineWidth:     0.00*
G04 ================== end FILE IDENTIFICATION RECORD ====================*
%FSLAX25Y25*MOIN*%
%IR0*IPPOS*OFA0.00000B0.00000*MIA0B0*SFA1.00000B1.00000*%
%ADD14C,.05*%
%ADD11C,.06*%
%ADD10C,.024*%
%ADD17C,.052*%
%ADD13C,.064*%
%ADD15R,.05X.05*%
%ADD16R,.06X.06*%
%ADD12C,.234*%
%ADD18C,.01*%
%ADD19C,.008*%
%ADD21C,.08804*%
%ADD23C,.2583*%
%ADD22C,.25832*%
%ADD20R,.08404X.08404*%
G75*
%LPD*%
G75*
G36*
G01X7001Y2001D02*
X2001Y7001D01*
Y352999D01*
X7001Y357999D01*
X192999D01*
X197999Y352999D01*
Y7001D01*
X192999Y2001D01*
X7001D01*
G37*
%LPC*%
G75*
G36*
G01X161602Y108799D02*
Y100701D01*
G02X158398I-1602J-1201D01*
G01Y108799D01*
G02X161602I1602J1201D01*
G37*
G36*
G01X99668Y136467D02*
G02Y139533I-3479J1533D01*
G03X100584I458J201D01*
G02X107542I3479J-1533D01*
G03X108458I458J201D01*
G02X110298Y141431I3480J-1532D01*
G01Y150945D01*
G02X113702I1702J1055D01*
G01Y141563D01*
G02X113691Y141373I-1702J3D01*
G02X115416Y139533I-1754J-3373D01*
G03X116332I458J201D01*
G02Y136467I3479J-1533D01*
G03X115416I-458J-201D01*
G02X108458I-3479J1533D01*
G03X107542I-458J-201D01*
G02X100584I-3479J1533D01*
G03X99668I-458J-201D01*
G37*
G36*
G01X43745Y285624D02*
G02X40255I-1745J-3490D01*
G03Y286518I-224J447D01*
G02Y293498I1745J3490D01*
G03Y294392I-224J447D01*
G02Y301372I1745J3490D01*
G03Y302266I-224J447D01*
G02Y309246I1745J3490D01*
G03Y310140I-224J447D01*
G02Y317120I1745J3490D01*
G03Y318014I-224J447D01*
G02Y324994I1745J3490D01*
G03Y325888I-224J447D01*
G02Y332868I1745J3490D01*
G03Y333762I-224J447D01*
G02Y340742I1745J3490D01*
G03Y341636I-224J447D01*
G02X39602Y348204I1745J3490D01*
G03X39295Y349098I-307J394D01*
G01X38098D01*
Y356902D01*
X45902D01*
Y349098D01*
X44705D01*
G03X44398Y348204I0J-500D01*
G02X43745Y341636I-2398J-3078D01*
G03Y340742I224J-447D01*
G02Y333762I-1745J-3490D01*
G03Y332868I224J-447D01*
G02Y325888I-1745J-3490D01*
G03Y324994I224J-447D01*
G02Y318014I-1745J-3490D01*
G03Y317120I224J-447D01*
G02Y310140I-1745J-3490D01*
G03Y309246I224J-447D01*
G02Y302266I-1745J-3490D01*
G03Y301372I224J-447D01*
G02Y294392I-1745J-3490D01*
G03Y293498I224J-447D01*
G02Y286518I-1745J-3490D01*
G03Y285624I224J-447D01*
G37*
G36*
G01X130359D02*
G02X126869I-1745J-3490D01*
G03Y286518I-224J447D01*
G02Y293498I1745J3490D01*
G03Y294392I-224J447D01*
G02Y301372I1745J3490D01*
G03Y302266I-224J447D01*
G02Y309246I1745J3490D01*
G03Y310140I-224J447D01*
G02Y317120I1745J3490D01*
G03Y318014I-224J447D01*
G02Y324994I1745J3490D01*
G03Y325888I-224J447D01*
G02Y332868I1745J3490D01*
G03Y333762I-224J447D01*
G02Y340742I1745J3490D01*
G03Y341636I-224J447D01*
G02Y348616I1745J3490D01*
G03Y349510I-224J447D01*
G02X130359I1745J3490D01*
G03Y348616I224J-447D01*
G02Y341636I-1745J-3490D01*
G03Y340742I224J-447D01*
G02Y333762I-1745J-3490D01*
G03Y332868I224J-447D01*
G02Y325888I-1745J-3490D01*
G03Y324994I224J-447D01*
G02Y318014I-1745J-3490D01*
G03Y317120I224J-447D01*
G02Y310140I-1745J-3490D01*
G03Y309246I224J-447D01*
G02Y302266I-1745J-3490D01*
G03Y301372I224J-447D01*
G02Y294392I-1745J-3490D01*
G03Y293498I224J-447D01*
G02Y286518I-1745J-3490D01*
G03Y285624I224J-447D01*
G37*
G36*
G01X93951Y16456D02*
X98205Y12202D01*
X108945D01*
G02Y8798I1055J-1702D01*
G01X96795D01*
X91544Y14049D01*
X91480Y14067D01*
G02X93933Y16520I520J1933D01*
G01X93951Y16456D01*
G37*
G36*
G01X17799Y57398D02*
X11201D01*
G02Y60602I-1201J1602D01*
G01X17799D01*
G02Y57398I1201J-1602D01*
G37*
G36*
G01X112799Y122398D02*
X107701D01*
G02Y125602I-1201J1602D01*
G01X112799D01*
G02Y122398I1201J-1602D01*
G37*
G36*
G01X143142Y156470D02*
X143219Y156484D01*
X148516Y161781D01*
X148530Y161858D01*
G02X150858Y159530I1970J-358D01*
G01X150781Y159516D01*
X145484Y154219D01*
X145470Y154142D01*
G02X143142Y156470I-1970J358D01*
G37*
G36*
G01X138642Y159470D02*
X138719Y159484D01*
X144898Y165663D01*
Y166799D01*
G02X148102I1602J1201D01*
G01Y164337D01*
X140984Y157219D01*
X140970Y157142D01*
G02X138642Y159470I-1970J358D01*
G37*
G36*
G01X78702Y171445D02*
Y159555D01*
G02X75298I-1702J-1055D01*
G01Y171445D01*
G02X78702I1702J1055D01*
G37*
G36*
G01X125102Y175799D02*
Y161201D01*
G02X121898I-1602J-1201D01*
G01Y175799D01*
G02X125102I1602J1201D01*
G37*
G36*
G01X130616Y162352D02*
Y161201D01*
G02X127414I-1601J-1201D01*
G01Y163678D01*
X127898Y164163D01*
Y178799D01*
G02X131102I1602J1201D01*
G01Y162837D01*
X130616Y162352D01*
G37*
G36*
G01X136602Y182299D02*
Y161201D01*
G02X133398I-1602J-1201D01*
G01Y182299D01*
G02X136602I1602J1201D01*
G37*
G36*
G01X23701Y168102D02*
X32163D01*
X36781Y163484D01*
X36858Y163470D01*
G02X34530Y161142I-358J-1970D01*
G01X34516Y161219D01*
X30837Y164898D01*
X23701D01*
G02Y168102I-1201J1602D01*
G37*
G36*
G01X8398Y171799D02*
G02X11601I1602J1201D01*
G01Y167701D01*
G02X8398I-1602J-1201D01*
G01Y171799D01*
G37*
G36*
G01X107602Y199900D02*
Y188201D01*
G02X104398I-1602J-1201D01*
G01Y199900D01*
G02X108603Y207550I1602J4100D01*
G03X109398Y207953I295J403D01*
G01Y208337D01*
X107219Y210516D01*
X107142Y210530D01*
G02X109470Y212858I358J1970D01*
G01X109484Y212781D01*
X112602Y209663D01*
Y207953D01*
G03X113397Y207550I500J0D01*
G02X113846Y200161I2603J-3550D01*
G03X113101Y199725I-245J-436D01*
G01Y189201D01*
G02X109898I-1602J-1201D01*
G01Y198837D01*
X109398Y199337D01*
Y200047D01*
G03X108603Y200450I-500J0D01*
G02X107602Y199900I-2602J3550D01*
G37*
G36*
G01X124398Y189201D02*
Y199900D01*
G02X127602I1602J4100D01*
G01Y189201D01*
G02X124398I-1602J-1201D01*
G37*
G36*
G01X137602Y197799D02*
Y190201D01*
G02X134398I-1602J-1201D01*
G01Y197799D01*
G02X137602I1602J1201D01*
G37*
G36*
G01X144102D02*
Y190201D01*
G02X140898I-1602J-1201D01*
G01Y197799D01*
G02X144102I1602J1201D01*
G37*
G36*
G01X60202Y203445D02*
Y190555D01*
G02X56798I-1702J-1055D01*
G01Y203445D01*
G02X60202I1702J1055D01*
G37*
G36*
G01X84642Y220970D02*
X84719Y220984D01*
X89516Y225781D01*
X89530Y225858D01*
G02X91858Y223530I1970J-358D01*
G01X91781Y223516D01*
X86984Y218719D01*
X86970Y218642D01*
G02X84642Y220970I-1970J358D01*
G37*
G36*
G01X125642Y237470D02*
X125719Y237484D01*
X131337Y243102D01*
X132299D01*
G02X132672Y239677I1201J-1602D01*
G01X132514Y239749D01*
X127984Y235219D01*
X127970Y235142D01*
G02X125642Y237470I-1970J358D01*
G37*
G36*
G01X183799Y239898D02*
X168201D01*
G02Y243102I-1201J1602D01*
G01X183799D01*
G02Y239898I1201J-1602D01*
G37*
G36*
G01X117299Y263398D02*
X108701D01*
G02Y266602I-1201J1602D01*
G01X117299D01*
G02Y263398I1201J-1602D01*
G37*
G36*
G01X12702Y298555D02*
G02X9298I-1702J-1055D01*
G01Y304945D01*
G02X12702I1702J1055D01*
G01Y298555D01*
G37*
G36*
G01X113017Y300180D02*
X96701D01*
G02Y303384I-1201J1602D01*
G01X113017D01*
G02Y300180I1201J-1602D01*
G37*
G36*
G01X155602Y108799D02*
Y96201D01*
G02X152398I-1602J-1201D01*
G01Y108799D01*
G02X155602I1602J1201D01*
G37*
G54D21*
X190000Y60000D03*
Y70000D03*
X180000Y250000D03*
X170000D03*
X160000D03*
Y60000D03*
Y70000D03*
X170000Y60000D03*
Y70000D03*
X180000Y60000D03*
Y70000D03*
X150000Y250000D03*
X140000D03*
X130000D03*
X150000Y229000D03*
Y219000D03*
X126000Y228000D03*
X150000Y209000D03*
X140000Y70000D03*
X150000Y60000D03*
Y70000D03*
X151000Y31000D03*
X141000D03*
X131000D03*
X151000Y21000D03*
X141000D03*
X131000D03*
X120000Y250000D03*
X106000Y228000D03*
X116000D03*
X110000Y60000D03*
X100000D03*
X121000Y31000D03*
X111000D03*
X121000Y21000D03*
X111000D03*
X94000Y250000D03*
X84000D03*
X74000D03*
X90000Y60000D03*
X80000D03*
X70000D03*
X65000Y36000D03*
Y46000D03*
X64000Y250000D03*
X54000D03*
X44000D03*
X60000Y60000D03*
X50000D03*
X34000Y250000D03*
X24000D03*
X14000D03*
X28000Y36000D03*
Y46000D03*
X190000Y112000D03*
Y102000D03*
X174000D03*
Y112000D03*
G54D23*
X37134Y109654D03*
G54D22*
X178866Y138000D03*
G54D20*
X190000Y250000D03*
X140000Y60000D03*
X104000Y250000D03*
X120000Y60000D03*
%LPD*%
G75*
G54D10*
X27000Y9500D03*
X10000Y59000D03*
X19000D03*
X26000Y150000D03*
X22500Y166500D03*
X10000D03*
Y173000D03*
X31000Y190000D03*
X11000Y306000D03*
Y297500D03*
X16000Y343500D03*
X47000Y7500D03*
X36500Y161500D03*
X58500Y189500D03*
Y204500D03*
X34500Y234000D03*
X66000Y9000D03*
X92000Y16000D03*
X77000Y158500D03*
Y172500D03*
X91500Y225500D03*
X85000Y219000D03*
X110000Y10500D03*
X106500Y124000D03*
X114000D03*
X112000Y152000D03*
X111500Y188000D03*
X106000Y187000D03*
X107500Y212500D03*
X118500Y265000D03*
X107500D03*
X114218Y301782D03*
X95500D03*
X123500Y177000D03*
Y160000D03*
X150500Y161500D03*
X143500Y154500D03*
X146500Y168000D03*
X139000Y157500D03*
X135000Y160000D03*
X129015D03*
X142500Y199000D03*
Y189000D03*
X126000Y188000D03*
X135000Y183500D03*
X129500Y180000D03*
X136000Y189000D03*
Y199000D03*
X126000Y235500D03*
X133500Y241500D03*
X160000Y99500D03*
Y110000D03*
X154000D03*
Y95000D03*
X167000Y241500D03*
X175500Y355000D03*
X185000Y241500D03*
G54D11*
X28000Y46000D03*
Y36000D03*
X65000Y46000D03*
Y36000D03*
X116000Y204000D03*
X106000D03*
X116000Y228000D03*
X106000D03*
X126000Y204000D03*
X150000Y209000D03*
X126000Y228000D03*
X150000Y219000D03*
Y229000D03*
X174000Y112000D03*
Y102000D03*
X190000D03*
Y112000D03*
G54D12*
X37134Y109654D03*
X178866Y138000D03*
G54D13*
X14000Y250000D03*
X24000D03*
X34000D03*
X50000Y60000D03*
X60000D03*
X44000Y250000D03*
X54000D03*
X64000D03*
X70000Y60000D03*
X80000D03*
X90000D03*
X74000Y250000D03*
X84000D03*
X94000D03*
X111000Y21000D03*
X121000D03*
X111000Y31000D03*
X121000D03*
X100000Y60000D03*
X110000D03*
X120000Y250000D03*
X131000Y21000D03*
X141000D03*
X151000D03*
X131000Y31000D03*
X141000D03*
X151000D03*
X150000Y70000D03*
Y60000D03*
X140000Y70000D03*
X130000Y250000D03*
X140000D03*
X150000D03*
X180000Y70000D03*
Y60000D03*
X170000Y70000D03*
Y60000D03*
X160000Y70000D03*
Y60000D03*
Y250000D03*
X170000D03*
X180000D03*
X190000Y70000D03*
Y60000D03*
G54D14*
X42000Y282134D03*
Y290008D03*
Y297882D03*
Y305756D03*
Y313630D03*
Y321504D03*
Y329378D03*
Y337252D03*
Y345126D03*
X128614Y297882D03*
Y290008D03*
Y282134D03*
Y321504D03*
Y313630D03*
Y305756D03*
Y353000D03*
Y345126D03*
Y337252D03*
Y329378D03*
G54D15*
X42000Y353000D03*
G54D16*
X120000Y60000D03*
X104000Y250000D03*
X140000Y60000D03*
X190000Y250000D03*
G54D17*
X96189Y138000D03*
X104063D03*
X111937D03*
X119811D03*
G54D18*
G01X11000Y306000D02*
Y297500D01*
G01X58500Y204500D02*
Y189500D01*
G01X77000Y172500D02*
Y158500D01*
G01X110000Y10500D02*
X97500D01*
X92000Y16000D01*
G01X112000Y152000D02*
Y141563D01*
G54D19*
G01X19000Y59000D02*
X10000D01*
G01Y173000D02*
Y166500D01*
G01X22500D02*
X31500D01*
X36500Y161500D01*
G01X44000Y245348D02*
Y250000D01*
G01D02*
Y254652D01*
G01X39348Y250000D02*
X44000D01*
G01D02*
X48652D01*
G01X42000Y277982D02*
Y282134D01*
G01X37848D02*
X42000D01*
G01D02*
X46152D01*
G01X37848Y329378D02*
X42000D01*
G01D02*
X46152D01*
G01X85000Y219000D02*
X91500Y225500D01*
G01X110000Y55348D02*
Y60000D01*
G01X100000Y55348D02*
Y60000D01*
G01X116348Y31000D02*
X121000D01*
G01X110000Y60000D02*
Y64652D01*
G01X105348Y60000D02*
X110000D01*
G01D02*
X114652D01*
G01X100000D02*
Y64652D01*
G01X95348Y60000D02*
X100000D01*
G01D02*
X104652D01*
G01X104063Y133948D02*
Y138000D01*
G01D02*
Y142052D01*
G01X112000Y141563D02*
X111937Y141500D01*
Y138000D01*
G01X114000Y124000D02*
X106500D01*
G01X111500Y188000D02*
Y199500D01*
X111000Y200000D01*
Y209000D01*
X107500Y212500D01*
G01X106000Y187000D02*
Y204000D01*
G01X107500Y265000D02*
X118500D01*
G01X95500Y301782D02*
X114218D01*
G01X141000Y16348D02*
Y21000D01*
G01D02*
Y25652D01*
G01X136348Y21000D02*
X141000D01*
G01D02*
X145652D01*
G01X121000Y26348D02*
Y31000D01*
G01D02*
Y35652D01*
G01Y31000D02*
X125652D01*
G01X123500Y160000D02*
Y177000D01*
G01X143500Y154500D02*
X150500Y161500D01*
G01X139000Y157500D02*
X146500Y165000D01*
Y168000D01*
G01X135000Y183500D02*
Y160000D01*
G01X129015D02*
Y163015D01*
X129500Y163500D01*
Y180000D01*
G01X142500Y189000D02*
Y199000D01*
G01X126000Y188000D02*
Y204000D01*
G01X136000Y199000D02*
Y189000D01*
G01X126000Y235500D02*
X132000Y241500D01*
X133500D01*
G01X128614Y277982D02*
Y282134D01*
G01X124462D02*
X128614D01*
G01D02*
X132766D01*
G01X124462Y313630D02*
X128614D01*
G01D02*
X132766D01*
G01X160000Y110000D02*
Y99500D01*
G01X154000Y95000D02*
Y110000D01*
G01X185000Y241500D02*
X167000D01*
M02*
